<svg height="388" viewBox="0 0 625 388" width="625" xmlns="http://www.w3.org/2000/svg"><g fill="none" fill-rule="evenodd" transform="translate(.231783 .834143)"><path d="m174.179564 247.224929s15.673759-1.757524 24.274232 13.900422c-.321513-.95865 7.314421 20.371308 7.314421 20.371308l-1.286052 7.669198s-7.3948-28.360056-32.713948-30.277355z" fill="#ee5a24"/><path d="m337.273797 223.652253s-13.320212-2.088243-15.580612-10.360896c-2.2604-8.272654-1.453114-28.512544 14.934784-40.801048 16.307169-12.288505 39.718452-4.337119 50.616808 4.176485 12.270741 9.477409 33.986724 32.608711 1.372385 55.499063l-9.283784-20.882426-1.210929-11.164066s-15.984255-8.031703-32.049239-9.798677c0 0-8.96087 8.593921-12.593655 16.143722z" fill="#25c16f"/><path d="m215.768217 204.712509s2.563944 22.721701 20.751926 22.39826c0 0 28.443759 3.234406 31.248074-39.864052l-2.804315-.08086s-4.246533 30.484275-29.164869 31.131156c0 0-13.140216-.16172-17.226502-14.878266z" fill="#ee5a24"/><path d="m438.768217 215.196702s21 35.073412 15.648648 77.096854c0 0 35.756757 4.444787 43.621622 46.872301l6.72973-1.1314s-3.567568-26.830352-3.648649-40.003085c-.081081-22.466379.243243-30.062924.486486-36.447255.243244-6.465145-1.621621-11.314003-4.945946-20.284392-3.405405-8.889574-13.459459-33.133868-13.459459-33.133868s9 22.30475-3.648649 28.123381c-7.216216 3.313386-26.918919 1.939543-40.783783-21.092536z" fill="#45a4ec"/><path d="m317.295014 104.165857s-9.239216 2.580645-11.022222 6.048387c-1.701961 3.467742-20.504575 41.612903-20.504575 41.612903s9.482352 22.741936 7.780392 28.951613l18.31634-28.548387s7.294117 7.096774 8.590849 12.66129c1.296732 5.564517 3.484968 10.967742-7.537255 35.645162l3.24183 3.629032s7.45621-33.225806 23.746406-39.274194c18.88366-7.016129 29.74379-1.935483 47.006536 10.967742 0 0 17.019607 3.467742 22.854902-2.82258l-13.129412-63.548387s-1.296732-7.5-15.07451-10.322581c0 0-43.11634 41.854839-46.196078 43.548387 0 .080645-9.725491-6.774193-18.073203-38.548387z" fill="#ffbb01"/><path d="m328.481175 21.165857s-13.481098 34.9874126.974537 58.3398602c.243635.4125874.730903.6601398 1.299383.6601398 3.248458-.1650349 15.348961-2.1454545 25.013122-20.5468531" stroke="#000" stroke-linecap="round" stroke-linejoin="round" stroke-width="2"/><path d="m340.76624 76.165857s.239181 12.0942409-4.544443 14.513089c-4.783623 2.4188482-24.715388 11.852356-24.715388 11.852356s-5.979529 1.209424-9.806428 8.949738-19.931764 41.684817-19.931764 41.684817" stroke="#000" stroke-linecap="round" stroke-linejoin="round" stroke-width="2"/><path d="m281.768217 155.165857s11.146825 16.373802 5.308012 25" stroke="#000" stroke-linecap="round" stroke-linejoin="round"/><path d="m289.768217 179.165857 17-25" stroke="#000" stroke-linecap="round" stroke-linejoin="round"/><path d="m313.495592 118.165857s-13.307676 23.301868-8.792572 31.042281c3.247707 5.644051 16.713808 15.07768 12.119491 29.349066-4.515104 14.271387-7.366749 21.608653-7.366749 21.608653" stroke="#000" stroke-linecap="round" stroke-linejoin="round"/><path d="m319.768217 102.88508s5.618571 26.211663 14.412857 36.280777c0 0 29.151428-27.410367 42.587143-37" stroke="#000" stroke-linecap="round" stroke-linejoin="round"/><path d="m371.768217 98.165857c9.10158 2.730924 19.58465 6.666667 20.559819 11.88755 1.218962 6.746988 14.139955 63.534137 15.440181 68.11245" stroke="#000" stroke-linecap="round" stroke-linejoin="round" stroke-width="2"/><path d="m357.51875 62.165857-1.749939 25.7305937s-.249991 4.5547945 9.499668 7.1917808c2.166591.5593607 4.833164 1.2785388 7.499738 2.0776255" stroke="#000" stroke-linecap="round" stroke-linejoin="round"/><path d="m314.768217 28.8956478s11.239819-4.1325401 18 7.2702092" stroke="#000" stroke-linecap="round" stroke-linejoin="round" stroke-width="2"/><path d="m339.768217 36.165857s4.691176-9.154176 22-6.5257492" stroke="#000" stroke-linecap="round" stroke-linejoin="round" stroke-width="2"/><path d="m365.273098 33.165857c.973746 3.9507043.531134 7.7464789-1.504881 11" stroke="#000" stroke-linecap="round" stroke-linejoin="round"/><path d="m328.67008 22.1254473c-3.980403-1.0400386-7.473409-4.6401722-6.823547-7.6002821.812327-3.7601395 4.873962-11.84043939 23.15132-4.1601544 12.34737 5.280196 19.983244 14.2405285 21.770364 22.8008462" stroke="#000" stroke-linecap="round" stroke-linejoin="round" stroke-width="2"/><path d="m344.768217 22.1143s-5.76-1.8-12.64-.3c-1.12.2-2.24.1-3.36-.2" stroke="#000" stroke-linecap="round" stroke-linejoin="round"/><path d="m361.409248 47.9576723s3.672785-4.1260046 6.485982-2.3461595c4.923094 3.15518 2.969485 8.8183235-1.719176 10.9217768-5.391961 2.4270615-6.407837-2.9124738-6.407837-2.9124738" stroke="#000" stroke-linecap="round" stroke-linejoin="round"/><path d="m360.768217 52.165857s2.914285-3.6156663 6-2.9082533" stroke="#000" stroke-linecap="round" stroke-linejoin="round"/><circle cx="362.268217" cy="59.665857" r="2.5" stroke="#000" stroke-linecap="round" stroke-linejoin="round"/><path d="m367.768217 33.5789691s14.721982-3.6358449 12.83253 10.6651451c-1.889453 14.3009901-9.447262 42.9029702-8.817444 52.9217428" stroke="#000" stroke-linecap="round" stroke-linejoin="round" stroke-width="2"/><path d="m338.768217 38.3051384s2.3 13.1543941 9.528571 11.7567397c7.228571-1.3976543 13.142857-11.5100948 13.471429-19.8960211" stroke="#000" stroke-linecap="round" stroke-linejoin="round"/><path d="m314.918581 30.165857s-2.385832 16.5873016 11.849636 20" stroke="#000" stroke-linecap="round" stroke-linejoin="round"/><path d="m333.306678 38.165857s-5.538461 11.6143858-5.538461 15.2333611c0 3.5348131 3.6 4.4605975 6 3.2823264" stroke="#000" stroke-linecap="round" stroke-linejoin="round"/><path d="m330.768217 61.0759241s6.113095 4.5394959 13-4.9100671" stroke="#000" stroke-linecap="round" stroke-linejoin="round"/><path d="m334.768217 35.7991904s2.439024-.6 4 0" stroke="#000" stroke-linecap="round" stroke-linejoin="round" stroke-width="2"/><path d="m346.768217 24.2025535s3.428571-.4711928 6 1.9633035" stroke="#000" stroke-linecap="round" stroke-linejoin="round" stroke-width="2"/><path d="m331.768217 23.2372856s-3.181819-.6428571-6 1.9285714" stroke="#000" stroke-linecap="round" stroke-linejoin="round" stroke-width="2"/><ellipse cx="347.000281" cy="38.825091" fill="#000" fill-rule="nonzero" rx="2.019519" ry="1" transform="matrix(.129694 -.99155407 .99155407 .129694 263.49925 377.859249)"/><ellipse cx="230.096222" cy="142.075749" fill="#000" fill-rule="nonzero" rx="2.019362" ry="1" transform="matrix(.19290349 -.98121774 .98121774 .19290349 46.302614 340.443336)"/><ellipse cx="218.138921" cy="141.407611" fill="#000" fill-rule="nonzero" rx="2.019362" ry="1" transform="matrix(.19290349 -.98121774 .98121774 .19290349 37.307507 328.171368)"/><ellipse cx="329.060709" cy="38.625254" fill="#000" fill-rule="nonzero" rx="2.019519" ry="1" transform="matrix(.129694 -.99155407 .99155407 .129694 248.084482 359.897275)"/><path d="m332.768217 135.165857s1.666666-8.56 8-14" stroke="#000" stroke-linecap="round" stroke-linejoin="round"/><path d="m377.768217 132.165857 5 40" stroke="#000" stroke-linecap="round" stroke-linejoin="round"/><path d="m387.654945 232.165857s21.117067-16.813609 15.002086-31.606352c-6.114981-14.873577-21.117067-30.87884-44.924725-35.72892-23.807659-4.850079-33.10243 18.02613-37.749815 30.151329-4.647385 12.125198-3.424389 26.756272 17.937277 30.393832" stroke="#000" stroke-linecap="round" stroke-linejoin="round" stroke-width="2"/><path d="m347.768217 256.373619c3.537972 6.320923 9.513216 11.601693 20.048513 9.201343 20.127134-4.560665 10.849783-41.846105 10.613918-44.806537-.235865-2.88042-2.594513-17.602568-2.594513-17.602568" stroke="#000" stroke-linecap="round" stroke-linejoin="round"/><path d="m334.768217 207.165857s6.09375 28.917609 7.8 35.218094c.8125 2.907916 2.03125 9.289176 5.2 14.781906" stroke="#000" stroke-linecap="round" stroke-linejoin="round" stroke-width="2"/><path d="m330.768217 212.165857s3.654822-11.2 16-20" stroke="#000" stroke-linecap="round" stroke-linejoin="round"/><path d="m332.768217 190.165857s29.215146 2.604651 46 14" stroke="#000" stroke-linecap="round" stroke-linejoin="round"/><path d="m391.768217 207.165857s-12.536122-19.274336-42-27" stroke="#000" stroke-linecap="round" stroke-linejoin="round"/><path d="m379.768217 214.165857 23 59" stroke="#000" stroke-linecap="round" stroke-linejoin="round" stroke-width="2"/><path d="m346.768217 257.165857 2 25" stroke="#000" stroke-linecap="round" stroke-linejoin="round" stroke-width="2"/><path d="m346.65116 284.494062-.882943 4.184616s3.772575 22.482051 20.147157 27.487179l3.852843-18.625641s-10.19398 0-20.949833-13.374359" stroke="#000" stroke-linecap="round" stroke-linejoin="round"/><path d="m371.768217 298.165857 8 18" stroke="#000" stroke-linecap="round" stroke-linejoin="round"/><path d="m399.982749 274.165857s-3.581314 10.283401-20.214532 24.37247l13.529411 15.62753s9.072665-20.404858 9.470589-37.894737" stroke="#000" stroke-linecap="round" stroke-linejoin="round"/><path d="m379.768217 297.165857s5.593939 55.229665 13 85" stroke="#000" stroke-linecap="round" stroke-linejoin="round"/><path d="m344.768217 288.165857-19 15" stroke="#000" stroke-linecap="round" stroke-linejoin="round" stroke-width="2"/><path d="m405.768217 274.165857 59.414977 21.488372s23.425551 7.351285 31.855507 40.876377l.729516 3.635251" stroke="#000" stroke-linecap="round" stroke-linejoin="round" stroke-width="2"/><path d="m349.768217 219.165857s1.433288 16.315588 2.613644 21.267085c1.264667 4.951497 6.576267 2.75985 5.142978-3.246883" stroke="#000" stroke-linecap="round" stroke-linejoin="round"/><path d="m338.813859 228.174776s-4.77179-3.937481-8.001925-.787496c-3.230135 3.149984 1.394831 13.859932 8.956283 8.11121" stroke="#000" stroke-linecap="round" stroke-linejoin="round"/><path d="m382.768217 218.108816s.983071-5.824622 6.04967-4.828305c4.915357.996317 6.503395 12.185721-2.722352 11.879162" stroke="#000" stroke-linecap="round" stroke-linejoin="round"/><path d="m383.768217 222.165857s.789473-4.935484 5-6" stroke="#000" stroke-linecap="round" stroke-linejoin="round"/><path d="m384.768217 219.165857s3.184573.076923 2.991568 2" stroke="#000" stroke-linecap="round" stroke-linejoin="round"/><path d="m338.768217 231.165857s-3.710844-4.725843-7-2.314699" stroke="#000" stroke-linecap="round" stroke-linejoin="round"/><path d="m337.332826 229.165857s-1.523869 3.282051.435391 4" stroke="#000" stroke-linecap="round" stroke-linejoin="round"/><path d="m361.768217 208.165857s-.775863-2-5-2" stroke="#000" stroke-linecap="round" stroke-linejoin="round" stroke-width="3"/><path d="m340.768217 212.165857s.717948-4.322034 4-5" stroke="#000" stroke-linecap="round" stroke-linejoin="round" stroke-width="3"/><path d="m343.768217 250.165857s.241379-8.203125 7-10" stroke="#000" stroke-linecap="round" stroke-linejoin="round"/><path d="m358.768217 237.477046s6.390041-.884616 13.112033 1.688811c0 0 .082987-19.300699 6.887967-23" stroke="#000" stroke-linecap="round" stroke-linejoin="round"/><path d="m352.768217 246.383724s9.283687 4.033212 11-6.217867" stroke="#000" stroke-linecap="round" stroke-linejoin="round"/><path d="m359.693816 223.151856c-.636489.092074-1.272979-.276222-1.37906-.92074l-.530408-2.854295c-.106082-.552445.318244-1.104889 1.060815-1.196963.63649-.092074 1.27298.276222 1.379061.92074l.530408 2.854296c.106082.552444-.424326 1.104888-1.060816 1.196962z" fill="#000" fill-rule="nonzero"/><path d="m345.692183 225.151856c-.63595.092074-1.271899-.276222-1.377891-.92074l-.529958-2.854295c-.105992-.552445.317975-1.104889 1.059916-1.196963.63595-.092074 1.271899.276222 1.377891.92074l.529958 2.854296c.105992.552444-.317975 1.104888-1.059916 1.196962z" fill="#000" fill-rule="nonzero"/><g stroke="#000"><path d="m314.768217 206.165857s-17.775385-11.089888-53-21" stroke-linecap="round" stroke-linejoin="round" stroke-width="2"/><path d="m251.768217 161.165857 9 20" stroke-linecap="round" stroke-linejoin="round" stroke-width="2"/><path d="m219.768217 189.165857-1 11" stroke-linecap="round" stroke-linejoin="round"/><path d="m221.271967 188.165857-3.364927-.483712s-10.895957.241856-8.893024-18.542283c2.002933-18.78414 6.809973-48.613031 6.809973-48.613031s-.560821-11.125371 9.533962-10.319184c10.094783.806186 21.150975 2.015465 21.150975 2.015465s11.777247 1.77361 10.094783 12.89898l-2.563755 16.365581" stroke-linecap="round" stroke-linejoin="round" stroke-width="2"/><path d="m252.768217 144.165857-6.8475 35.072921s-2.7225 12.199278-19.14 9.55075l-7.0125-.963101" stroke-linecap="round" stroke-linejoin="round"/><path d="m216.768217 116.445159s19.688372-2.006058 32.023255 4.734298l-2.530232 12.678289s-1.818605 7.623022 4.506977 9.308111" stroke-linecap="round" stroke-linejoin="round"/><path d="m251.826455 147.743121s4.070147-3.960138 7.814682-2.062572c3.744536 1.815063 3.988744 7.755271 1.465253 10.807878-2.360685 2.970104-8.221697 4.372653-10.338173-.660023" stroke-linecap="round" stroke-linejoin="round"/><path d="m252.768217 154.165857s3.272727-5.0625 7-3.796875" stroke-linecap="round" stroke-linejoin="round"/><path d="m248.897346 145.165857-2.128795 7.589141s-.096763 2.55476 2.999666 2.40448" stroke-linecap="round" stroke-linejoin="round"/><path d="m222.670273 137.165857-3.758814 17.124497s-.961558 3.534873 2.097943 3.849084c3.0595.314211 3.758815-2.27803 3.758815-2.27803" stroke-linecap="round" stroke-linejoin="round"/><path d="m223.729772 139.44741s-2.243629 10.554162 2.484018 12.435912c4.727647 1.963564 13.862422 2.781716 15.865662-5.97251 2.00324-8.672412-.320518-11.863205-7.532183-12.599542-3.766092-.327261-8.333479-.818152-11.779052-1.145413" stroke-linecap="round" stroke-linejoin="round"/><path d="m221.768217 131.89783-6.749157-.559563s-5.399324-1.438877-6.352146 3.996881c-.635215 3.916943-3.334877 14.548647 5.319923 15.747711 0 0 5.63753 1.03919 6.749156-4.236694" stroke-linecap="round" stroke-linejoin="round"/><path d="m237.768217 128.165857s-1.09091-3.333333-5-4" stroke-linecap="round" stroke-linejoin="round"/><path d="m220.768217 124.165857s-3.181819.46875-4 3" stroke-linecap="round" stroke-linejoin="round"/><path d="m219.768217 167.50973s10.102409 3.906316 13-7.343873" stroke-linecap="round" stroke-linejoin="round"/><path d="m233.768217 161.165857s-.567568-2.655009-3-1.846963" stroke-linecap="round" stroke-linejoin="round"/><path d="m219.768217 204.300295s4.456721 13.485501 18.313075 12.843335c13.856354-.642167 24.309392-17.739856 25.686925-28.977773" stroke-linecap="round" stroke-linejoin="round"/><path d="m217.768217 203.733869s1.364886 22.021075 19.509851 22.424391c18.144964.48398 30.107794-22.263064 29.465495-37.992403" stroke-linecap="round" stroke-linejoin="round"/><path d="m214.768217 202.165857-21.114131 12.604167s-16.875 7.447916-19.809783 20.952381c-2.934782 13.504464-4.076086 21.443452-4.076086 21.443452" stroke-linecap="round" stroke-linejoin="round" stroke-width="2"/><path d="m232.768217 219.165857 5 23" stroke-linecap="round" stroke-linejoin="round"/><path d="m405.768217 203.165857s33.280513-12.602007 38-24" stroke-linecap="round" stroke-linejoin="round" stroke-width="2"/><path d="m454.76756 124.165857s.232926 1.795918-8.074767 21.22449c-6.133716 14.285714-1.863407 30.612245 5.823149 34.77551" stroke-linecap="round" stroke-linejoin="round"/><path d="m454.768217 126.165857s1.7325 18.758382 16.7475 20.288036c0 0-2.145-4.105912-2.475-8.292332 0 0 10.23 13.122817 18.7275 10.707574" stroke-linecap="round" stroke-linejoin="round"/><path d="m485.768217 152.165857s10.660584 21.629834.849073 29" stroke-linecap="round" stroke-linejoin="round"/><path d="m434.768217 183.165857s-6.041685-10.378855-.977332-19" stroke-linecap="round" stroke-linejoin="round"/><path d="m486.502001 183.855136s13.951583 3.141127 15.161258-10.550966c1.209675-13.61155-8.467724-25.853892-6.935469-40.834652s-13.951584-28.914477-28.467682-30.122603c-14.516099-1.208126-29.193487 3.624378-32.257997 14.658593-3.145155 11.034216-1.370965 17.558095-8.629014 27.384185-5.725795 7.732005-17.419318 27.947977 8.790304 38.096233" stroke-linecap="round" stroke-linejoin="round" stroke-width="2"/><path d="m434.768217 167.165857s3.896373 12.675 16 13" stroke-linecap="round" stroke-linejoin="round"/><path d="m477.581999 177.165857s-1.527462 3.34029-2.673058 4.103785c-1.145595.763494 4.964249 3.6266 8.859276.381747" stroke-linecap="round" stroke-linejoin="round"/><path d="m485.768217 152.165857s-.163683 32.796981-22.751919 31.985174c0 0-5.237851-.324722-9.248081-3.166045" stroke-linecap="round" stroke-linejoin="round"/><path d="m472.768217 183.165857s-3 13.080169-3 20" stroke-linecap="round" stroke-linejoin="round"/><path d="m430.768217 193.046854s8.667876 44.129915 40.129058 42.04756c26.565437-1.761993 3.772132-42.928557 3.772132-42.928557" stroke-linecap="round" stroke-linejoin="round"/><path d="m471.768217 189.165857s26.023706 10.528169 34.105603 15.225352 17.376078 16.521127 24.568965 32.637324c7.112069 16.116197 16.325432 44.137324 16.325432 44.137324" stroke-linecap="round" stroke-linejoin="round" stroke-width="2"/><path d="m479.768217 203.165857s15.360714 37.119801 18.071428 47.368094-3.285714 46.722533 4.928572 82.631906" stroke-linecap="round" stroke-linejoin="round"/><path d="m509.768217 229.165857s11.843601 22.489888 15.06635 31.388764-5.398104 21.357303-3.464455 38.993259c1.853081 17.555056 5.398105 37.617977 5.398105 37.617977" stroke-linecap="round" stroke-linejoin="round"/><path d="m521.768217 294.925495s18.921974 49.921615 39.062101 17.0169c7.065287-11.53278 7.065287-17.339495 11.937899-51.776538" stroke-linecap="round" stroke-linejoin="round" stroke-width="2"/></g><path d="m337.768217 201.165857s14.214705-4.10197 27-4.243418c0 0-14.532353-3.960523-17.311765-3.748352 0 0-5.479412 4.031247-9.688235 7.99177z" fill="#000" fill-rule="nonzero"/><path d="m472.768217 150.165857-2.190451 14.47109s-.469383 3.089333-2.972755 2.438947c-2.503373-.650386-1.721069-4.634-1.721069-4.634" stroke="#000" stroke-linecap="round" stroke-linejoin="round"/><path d="m460.768217 169.165857s2.44186 4.802999 7 2.254469" stroke="#000" stroke-linecap="round" stroke-linejoin="round"/><path d="m368.768217 199.165857s.589473 14.323689 8 13.994409" stroke="#000" stroke-linecap="round" stroke-linejoin="round"/><path d="m411.768217 242.165857-3 31" stroke="#000" stroke-linecap="round" stroke-linejoin="round"/><path d="m453.158299 288.165857s2.274317-24.423932-1.960617-38.805128c-4.234934-14.381197-22.429465-55.194872-22.429465-55.194872" stroke="#000" stroke-linecap="round" stroke-linejoin="round"/><path d="m451.768217 242.165857s32.051587-3.428571 41-4" stroke="#000" stroke-linecap="round" stroke-linejoin="round"/><path d="m452.768217 252.165857s38.196531-2.727273 42-3" stroke="#000" stroke-linecap="round" stroke-linejoin="round"/><path d="m455.768217 266.115857 42-.9" stroke="#000" stroke-linecap="round" stroke-linejoin="round"/><path d="m455.768217 282.165857 40 2" stroke="#000" stroke-linecap="round" stroke-linejoin="round"/><path d="m472.768217 298.215857 24 .9" stroke="#000" stroke-linecap="round" stroke-linejoin="round"/><path d="m487.768217 311.815857 9-.3" stroke="#000" stroke-linecap="round" stroke-linejoin="round"/><path d="m492.768217 322.115857 7-.9" stroke="#000" stroke-linecap="round" stroke-linejoin="round"/><path d="m494.768217 330.415857 7 .5" stroke="#000" stroke-linecap="round" stroke-linejoin="round"/><ellipse cx="463.61879" cy="151.10186" fill="#000" fill-rule="nonzero" rx="2.342613" ry="1" transform="matrix(.08854708 -.99607199 .99607199 .08854708 272.058371 599.519924)"/><ellipse cx="476.723773" cy="153.169693" fill="#000" fill-rule="nonzero" rx="2.342613" ry="1" transform="matrix(.08854708 -.99607199 .99607199 .08854708 281.943235 614.458163)"/><path d="m242.768217 138.165857 9 10" stroke="#000" stroke-linecap="round" stroke-linejoin="round"/><path d="m340.768217 82.165857s1.864864-.3211678 7.216216-6.9854014c5.351351-6.6642336 7.783784-15.0145986 7.783784-15.0145986s-6.567568 10.6788322-14.675676 16.7810219z" fill="#000" fill-rule="nonzero"/><path d="m219.768217 193.839451s19.23676 2.379501 22.585669-5.710804l2.414331-8.96279s-4.205608 13.483843-24.688474 8.486889z" fill="#000" fill-rule="nonzero"/><path d="m349.768217 261.706174s11.702639 13.81226 24.777312 6.138782c15.334493-8.885079 4.51964-41.679099 4.51964-41.679099s6.456629 30.128496-7.182999 37.398107c-8.393617 4.442539-16.545111 1.373148-22.113953-1.85779z" fill="#000" fill-rule="nonzero"/><path d="m448.768217 181.386606s11.821678 13.539239 21.874125 6.990367l1.125875-5.73946s-8.685315 4.782884-19.22028-1.471656c.080419 0-3.055944.662245-3.77972.220749z" fill="#000" fill-rule="nonzero"/><path d="m178.768217 274.165857s-25.912885-54.149977-32.473109-70.830104c0 0-.820028-29.331238-1.968067-33.843736-1.066036-4.512498-1.886064-6.446426-5.904201-12.651111-4.018137-6.204684-10.578361-13.134592-14.104482-12.65111-3.52612.402901-5.00217 3.626114-1.722058 7.57455 4.264145 5.157141 7.872268 12.48995 7.872268 12.48995" stroke="#000" stroke-linecap="round" stroke-linejoin="round" stroke-width="2"/><path d="m123.95521 167.165857c-2.316594 1.47541-4.798659 3.442623-5.129601 5-.661884 3.278689 4.550452 14.754098 7.942608 15" stroke="#000" stroke-linecap="round" stroke-linejoin="round"/><path d="m128.768217 165.165857s-2.410715 1.21875-5 3" stroke="#000" stroke-linecap="round" stroke-linejoin="round" stroke-width="2"/><path d="m114.768217 175.165857c.672897 3.879932 2.392523 12.985894 8 10.610425" stroke="#000" stroke-linecap="round" stroke-linejoin="round" stroke-width="2"/><path d="m122.768217 168.165857s-9.659664 3.057471-8.964169 7" stroke="#000" stroke-linecap="round" stroke-linejoin="round" stroke-width="2"/><path d="m112.80558 174.165857s-2.962637 1.442643-1.742727 5.011285c.9585 3.037143 2.614091 5.770571 4.705364 4.7835" stroke="#000" stroke-linecap="round" stroke-linejoin="round" stroke-width="2"/><path d="m116.768217 187.165857 2.972067 10.927089s3.44134 7.391854 11.027933 5.865275" stroke="#000" stroke-linecap="round" stroke-linejoin="round" stroke-width="2"/><path d="m129.768217 223.165857 6.886993 56.655358s2.997868 39.384351 28.925373 43.984573c25.927506 4.600221 40.187634-36.398243 40.187634-36.398243" stroke="#000" stroke-linecap="round" stroke-linejoin="round" stroke-width="2"/><path d="m126.868217 204.165857.8 5" stroke="#000" stroke-linecap="round" stroke-linejoin="round"/><path d="m172.768217 261.165857s19.76455-.241406 31 26" stroke="#000" stroke-linecap="round" stroke-linejoin="round"/><path d="m125.768217 169.165857 3 7" stroke="#000" stroke-linecap="round" stroke-linejoin="round"/><path d="m127.768217 173.165857s2.571428-.5 3-2" stroke="#000" stroke-linecap="round" stroke-linejoin="round"/><path d="m137.269362 182.495715c-5.915434 2.977821-8.998125 1.450733-10.081233-.534481-1.499688-2.901467 1.499688-4.275846 1.499688-4.275846l7.415121-3.512302s3.832535-.305418 6.665279 3.054176" stroke="#000" stroke-linecap="round" stroke-linejoin="round"/><path d="m130.768217 185.165857s-7.027961 3.378571-5.871461 11" stroke="#000" stroke-linecap="round" stroke-linejoin="round"/><g stroke="#000" stroke-linecap="round" stroke-linejoin="round" transform="translate(561.768217 213.165857)"><path d="m0 35.9929825s7.87692308-20.1754386 9.76410256-23c1.88717954-2.8245614 2.95384614-3.87368425 7.22051284-7.10175443 4.3487179-3.22807018 10.5025641-6.29473684 12.8-5.08421053 2.2974359 1.12982457 2.4615384 3.71228071-.7384616 5.56842106-4.1846153 2.42105263-8.5333333 6.5368421-8.5333333 6.5368421" stroke-width="2"/><path d="m21.0871795 13.5578947s5.0051282 5.1649123 4.5948718 7.4245614c-.4102564 2.3403509-6.8102564 8.7157895-9.1076923 8.0701755"/><path d="m24.5333333 16.5438596s5.5794872 4.9228071 4.1025641 7.3438597c-1.5589743 2.5017544-5.1692307 8.3122807-8.6974359 5.1649123"/><path d="m29.7025641 23.645614s.574359 2.0982456-.9025641 3.954386-3.2 3.5508772-4.2666667 2.3403509"/><path d="m23.9589744 31.2315789-4.923077 6.6175439s-4.3487179 4.1157895-9.27179484 1.1298246" stroke-width="2"/><path d="m12.1435897 40.754386-1.2307692 4.6807017" stroke-width="2"/><path d="m21.3333333 17.5929825-3.2820512 3.5508771"/><path d="m18.8717949 19.045614s-1.2307693-.8070175-1.0666667-1.8561403"/><path d="m11.0769231 23.4035088c3.1179487 3.5508772 5.5794872 3.2280701 6.8102564 2.0175438 1.8051282-1.6947368.1641026-3.3894737.1641026-3.3894737l-4.0205129-4.2771929s-2.4615384-1.1298246-5.25128202.5649122"/><path d="m14.2769231 26.7929825s3.5282051 3.9543859.8205128 8.9578947"/></g><path d="m12.3122181 129.165857h77.7109968c2.5663074 0 4.8118264 1.76 5.3732061 4.24l11.227595 49.04c.801971 3.44-1.844533 6.72-5.373206 6.72h-77.2298143c-2.5663074 0-4.7316293-1.76-5.3732061-4.24l-11.70877768-49.04c-.88216818-3.44 1.76433636-6.72 5.37320618-6.72z" fill="#45a4ec"/><path d="m8.76821652 124.165857h73.16426188c2.9104016 0 5.3357362 1.949821 6.0633366 4.793309l12.61174 55.569893c.88929 3.899642-2.021112 7.636798-6.0633364 7.636798h-72.5983505" stroke="#000" stroke-linecap="round" stroke-linejoin="round" stroke-width=".9214"/><path d="m6.97802074 124.165857h72.99741216c2.9037645 0 5.3235682 1.949821 6.0495093 4.793309l12.5829794 55.569893c.8872614 3.899642-2.0165031 7.636798-6.0495093 7.636798h-72.3521312c-2.8231044 0-5.3235682-1.949821-5.9688492-4.793309l-13.30892046-55.48865c-.88726136-3.899642 2.0165031-7.718041 6.0495093-7.718041z" stroke="#000" stroke-linecap="round" stroke-linejoin="round" stroke-width="2"/><path d="m77.7682165 153.665857h-42" stroke="#000" stroke-linecap="round" stroke-linejoin="round"/><path d="m89.7682165 167.665857h-42" stroke="#000" stroke-linecap="round" stroke-linejoin="round"/><path d="m380.792459 308.113225 11.975758 5.052632-13-15z" fill="#000" fill-rule="nonzero"/><path d="m347.768217 247.165857s1.862745 7.261147 5 12" stroke="#000" stroke-width=".25"/><path d="m352.768217 249.165857s2.238805 7.753012 6 13" stroke="#000" stroke-width=".25"/><path d="m361.768217 247.165857s2.347826 8.57732 4 16" stroke="#000" stroke-width=".25"/><path d="m368.768217 241.165857s3.727272 14.270386 4 19" stroke="#000" stroke-width=".25"/><path d="m375.768217 227.165857s3.594411 19.54416 2.914388 28" stroke="#000" stroke-width=".25"/><path d="m251.572244 349.028066-16.498836-38.739615c-1.046268-2.401216.724339-5.122594 3.380249-5.122594h92.634927c4.587481 0 8.772551 2.561297 10.784605 6.643364l35.895028 72.356636" stroke="#000" stroke-linecap="round" stroke-linejoin="round"/><path d="m238.768217 309.165857h91.23582c4.191045 0 7.979105 2.310273 9.832836 6.054507l33.931344 69.945493" stroke="#000" stroke-linecap="round" stroke-linejoin="round" stroke-width=".9134"/><path d="m240.268217 64.165857v-13" stroke="#ffbb01" stroke-linecap="round" stroke-linejoin="round" stroke-width="2.7858"/><path d="m426.768217 346.165857s9.131313-4.277778 24-7" stroke="#000" stroke-linecap="round" stroke-linejoin="round"/><path d="m223.768217 346.702025s35.465561-2.102008 75.939927 22.798698c35.061626 21.666849 91.693423 23.041238 128.693941-.808464 58.005179-37.431906 107.366132-31.125883 107.366132-31.125883" stroke="#000" stroke-linecap="round" stroke-linejoin="round" stroke-width="2"/><path d="m196.768217 253.165857s24.530831 82.648696 30 93" stroke="#000" stroke-linecap="round" stroke-linejoin="round" stroke-width="2"/><path d="m358.768217 64.165857s0 22.4831461 7 29" stroke="#000" stroke-linecap="round" stroke-linejoin="round"/><path d="m485.177129 151.165857s-.657426 23.049678-12.408912 30.104028c0 0 3.040594 2.050683 6.820793 1.886629 4.437624-.246082 9.697031-3.199066 10.107922-10.335443.739604-13.370454-4.519803-21.655214-4.519803-21.655214z" fill="#000" fill-rule="nonzero"/><path d="m434.469921 181.165857s-9.622657-6.901709-8.629843-17.538461c.992814-10.636753 9.622657-11.611112 9.928139-20.461539" stroke="#000" stroke-linecap="round" stroke-linejoin="round"/><path d="m442.768217 107.165857s-2.506173-3.552768-7-2.925809" stroke="#000" stroke-linecap="round" stroke-linejoin="round"/><path d="m224.455883 110.165857s-7.755973-13.2655689-9.173731-16.1775231c-1.584554-3.2355046 1.000771-5.1768074 1.000771-5.1768074s15.178355-12.5375804 16.429318-13.4273442c1.167566-.8088761 3.252504.7279886 1.167566 2.9928418" stroke="#000" stroke-linecap="round" stroke-linejoin="round"/><path d="m232.768217 98.165857s4.416666 1.6805556 3.833333 7.791667l3.166667 3.208333" stroke="#000" stroke-linecap="round" stroke-linejoin="round"/><path d="m561.768217 251.165857s-5.469388 10.495413-20 44" stroke="#000" stroke-linecap="round" stroke-linejoin="round" stroke-width="2"/><path d="m528.768217 305.165857s3.741293-12.65625 16-20" stroke="#000" stroke-linecap="round" stroke-linejoin="round"/><path d="m544.768217 282.165857s-9.567568 3.157895-15 15" stroke="#000" stroke-linecap="round" stroke-linejoin="round"/><path d="m223.768217 86.4783406 12.693076-11.6459043s1.220488-1.3844782 2.196878-.1628798c1.139123 1.465918-6.834733 9.4470273-11.472588 14.4963005" stroke="#000" stroke-linecap="round" stroke-linejoin="round"/><path d="m236.904049 78.2145729s1.628831-1.7335915 2.559592-.7429678c.620507.6604158.23269 1.0731757-.620507 2.6416633-1.396141 2.6416632-9.074917 12.0525886-9.074917 12.0525886" stroke="#000" stroke-linecap="round" stroke-linejoin="round"/><path d="m235.087041 84.9232887s3.393363-2.2259215 2.545022.9539663c-.462731 1.8284356-6.246872 9.0626805-6.863846 11.288602" stroke="#000" stroke-linecap="round" stroke-linejoin="round"/><path d="m604.578326 206.165857 17.404159.239332c.564024 0 1.933796 1.435993 1.772646 1.994434l-10.313576 40.128015c-.080574.398887-.483448.638219-.805748.638219h-17.081859c-.564024 0-1.933796-1.435993-1.772646-1.994434l10.071851-40.367347c0-.319109.322299-.638219.725173-.638219z" stroke="#45a4ec" stroke-linecap="round" stroke-linejoin="round"/><path d="m594.97448 249.165857-1.363393-1.28c-.641596-.56-.962394-1.04-.801995-1.6l10.024945-40.48c.080199-.4.481197-.64.882195-.64l17.323104.24c.561397 0 2.806985 1.92 2.726785 2.48" stroke="#45a4ec" stroke-linecap="round" stroke-linejoin="round"/><path d="m489.768217 181.165857s10.364201-4.354839 7.4993-15" stroke="#000" stroke-linecap="round" stroke-linejoin="round"/><path d="m443.68144 105.165857s-1-1-.8-3" stroke="#000" stroke-linecap="round" stroke-linejoin="round"/><path d="m495.768217 115.165857s3.881718 7.167785 2.814246 12" stroke="#000" stroke-linecap="round" stroke-linejoin="round"/><path d="m245.268217 64.165857v-34" stroke="#ffbb01" stroke-linecap="round" stroke-linejoin="round" stroke-width="2.7858"/><path d="m249.268217 64.165857v-25" stroke="#ffbb01" stroke-linecap="round" stroke-linejoin="round" stroke-width="2.7858"/><path d="m254.268217 64.165857v-20" stroke="#ffbb01" stroke-linecap="round" stroke-linejoin="round" stroke-width="2.7858"/><path d="m259.268217 64.165857v-12" stroke="#ffbb01" stroke-linecap="round" stroke-linejoin="round" stroke-width="2.7858"/><path d="m262.268217 64.165857v-26" stroke="#ffbb01" stroke-linecap="round" stroke-linejoin="round" stroke-width="2.7858"/><path d="m267.268217 64.165857v-12" stroke="#ffbb01" stroke-linecap="round" stroke-linejoin="round" stroke-width="2.7858"/><path d="m271.268217 64.165857v-7" stroke="#ffbb01" stroke-linecap="round" stroke-linejoin="round" stroke-width="2.7858"/><path d="m275.268217 64.165857v-4" stroke="#ffbb01" stroke-linecap="round" stroke-linejoin="round" stroke-width="2.7858"/><path d="m278.268217 64.165857v-15" stroke="#ffbb01" stroke-linecap="round" stroke-linejoin="round" stroke-width="2.7858"/><path d="m265.768217 73.665857h-21" stroke="#45a4ec" stroke-linecap="round" stroke-linejoin="round" stroke-width="2.7858"/><path d="m275.768217 79.665857h-31" stroke="#45a4ec" stroke-linecap="round" stroke-linejoin="round" stroke-width="2.7858"/><ellipse cx="301.89212" cy="345.003145" rx="7.994487" ry="10.254345" stroke="#000" stroke-linecap="round" stroke-linejoin="round" stroke-width=".771166" transform="matrix(.64112823 -.76743377 .76743377 .64112823 -156.426505 355.4941)"/><circle cx="363.768217" cy="51.165857" fill="#000" fill-rule="nonzero" r="4"/><ellipse cx="339.447201" cy="66.490971" fill="#000" fill-rule="nonzero" rx="2.502644" ry="1.857826" transform="matrix(.95748157 -.28849444 .28849444 .95748157 -4.749513 100.755723)"/><path d="m364.768217 53.165857s-10.181819 9.8083833-24 13" stroke="#000"/><ellipse cx="612.191409" cy="214.424056" rx="1.61542" ry="1.453113" stroke="#45a4ec" stroke-linecap="round" stroke-linejoin="round" stroke-width=".999982" transform="matrix(.3197057 -.94751689 .94751689 .3197057 213.299909 725.933164)"/><path d="m586.613311 155.165857h-36.024096c-1.02926 0-1.820998-.79646-1.820998-1.831858v-23.336284c0-1.035398.791738-1.831858 1.820998-1.831858h42.358003c1.02926 0 1.820999.79646 1.820999 1.831858v23.256638c0 1.035398-.791739 1.831858-1.820999 1.831858h-1.187607-5.1463z" stroke="#000" stroke-linecap="round" stroke-linejoin="round"/><path d="m557.768217 138.665857h29" stroke="#000" stroke-linecap="round" stroke-linejoin="round"/><path d="m557.768217 142.665857h29" stroke="#000" stroke-linecap="round" stroke-linejoin="round"/><path d="m429.252994 366.165857-7.484777-26.235s22.215456-5.94 29.859484-6.765l4.140516 16.005" stroke="#000" stroke-linecap="round" stroke-linejoin="round"/><path d="m27.5125943 199.768381 41.8342108 22.239747c.242283.078865.4038051.157729.6460882.157729h72.3618777c1.453699 0 1.938265-1.892744.72685-2.602524l-37.311594-21.135646c-1.453698-.867508-3.14968-1.26183-4.845661-1.26183h-72.6849224c-1.5344595 0-2.0190257 1.971609-.7268493 2.602524z" stroke="#000" stroke-linecap="round" stroke-linejoin="round" stroke-width="2"/><path d="m257.768217 129.165857 20 24" stroke="#000" stroke-linecap="round" stroke-linejoin="round" stroke-width="2"/><path d="m285.768217 180.369216s-3.401899 5.632142-7.278481.911081c-3.955697-4.72106-17.721519-22.11444-17.721519-22.11444" stroke="#000" stroke-linecap="round" stroke-linejoin="round" stroke-width="2"/><path d="m226.768217 77.7586527v-73.3179327c0-2.41973375 1.937716-4.27486296 4.279123-4.27486296h61.441753c2.422145 0 4.279124 1.935787 4.279124 4.27486296v94.4502741c0 2.4197339-1.937717 4.2748629-4.279124 4.2748629h-54.256055" stroke="#45a4ec" stroke-width="2"/><path d="m568.768217 93.8373268c0-5.5677234-4.55-10.167147-10.2375-10.167147-1.05625 0-2.1125.1613833-3.00625.4841499-2.19375-4.6801153-6.9875-7.9884727-12.59375-7.9884727s-10.4 3.3083574-12.59375 8.0691643c-1.05625-.4034582-2.19375-.5648415-3.33125-.5648415-5.60625 0-10.2375 4.518732-10.2375 10.167147 0 .3227666 0 .6455331.08125.9682997 0 5.1642651 4.225 9.3602305 9.425 9.3602305h33.06875c5.2 0 9.425-4.1959654 9.425-9.3602305v-.4034582c0-.2420749 0-.4034582 0-.5648415z" stroke="#ee5a24" stroke-width=".8288"/><path d="m199.768217 17.1395413c0-5.3684211-4.354839-9.78947373-9.83871-9.78947373-1.048387 0-2.016129.15789474-2.903226.47368421-2.096774-4.5-6.693548-7.65789474-12.096774-7.65789474s-10.080645 3.15789474-12.096774 7.81578948c-1.048387-.31578948-2.096775-.55263158-3.225807-.55263158-5.403226 0-9.838709 4.34210526-9.838709 9.78947366 0 .3157895 0 .631579.080645.9473684 0 4.9736843 4.032258 9 9.032258 9h31.854838c5 0 9.032259-4.0263157 9.032259-9v-.3947368c0-.2368421 0-.3947368 0-.6315789z" stroke="#45a4ec" stroke-width="1.4586"/><circle cx="525.768217" cy="139.165857" fill="#3278b2" r="6"/><path d="m526.041929 148.214512c4.728907-.000495 8.562845-3.832026 8.56334-8.557964s-3.83264-8.556666-8.561548-8.556171c-4.728907.000495-8.562845 3.832026-8.56334 8.557964-.000495 4.725937 3.832641 8.556666 8.561548 8.556171z" stroke="#3278b2" stroke-dasharray="3.168248 1.267319" stroke-width=".63661" transform="matrix(.16019757 -.98708497 .98708497 .16019757 303.918279 636.533627)"/><circle cx="525.768217" cy="139.165857" fill="#ffbb01" r="4"/><circle cx="115.268217" cy="130.665857" fill="#ffbb01" r="2.5"/><circle cx="119.768217" cy="122.165857" fill="#8adf56" r="4"/><circle cx="113.268217" cy="113.665857" fill="#ee5a24" r="5.5"/><path d="m579.768217 166.165857c-2.25 0-4 1.75-4 4 0 2.25 1.75 4 4 4s4-1.75 4-4v-4z" fill="#45a4ec" fill-rule="nonzero"/><path d="m609.492829 191.165857h2.454389c1.02926 0 1.820999-.797721 1.820999-1.834758v-24.330484c0-1.037037-.791739-1.834758-1.820999-1.834758h-42.358003c-1.02926 0-1.820998.797721-1.820998 1.834758v24.330484c0 1.037037.791738 1.834758 1.820998 1.834758h34.678141" stroke="#000" stroke-linecap="round" stroke-linejoin="round"/><path d="m610.768217 190.319703-7 6.846154v-7" stroke="#000" stroke-linecap="round" stroke-linejoin="round"/><path d="m605.768217 176.665857h-29" stroke="#000" stroke-linecap="round" stroke-linejoin="round"/><path d="m605.768217 182.665857h-29" stroke="#000" stroke-linecap="round" stroke-linejoin="round"/><path d="m84.7682165 91.165857c-5.483871 0-10 4.5161291-10 10 0 5.483871 4.516129 10 10 10s10-4.516129 10-10v-10z" fill="#ee5a24" fill-rule="nonzero"/><path d="m314.768217 275.165857c-6.093526 0-11 4.906475-11 11 0 6.093525 4.906474 11 11 11 6.093525 0 11-4.906475 11-11v-11z" fill="#25c16f" fill-rule="nonzero"/><path d="m238.268217 6.16585704c-4.105264 0-7.5 3.31578948-7.5 7.49999996 0 4.1052632 3.315789 7.5 7.5 7.5 4.105263 0 7.5-3.3157894 7.5-7.5v-7.49999996z" fill="#ffbb01" fill-rule="nonzero"/><path d="m326.768217 261.165857 8 31" stroke="#000" stroke-linecap="round" stroke-linejoin="round"/></g></svg>